HIERARCHY
ROOT pelvis
{
  OFFSET 0 100 0
  CHANNELS 6 Xposition Yposition Zposition Zrotation Xrotation Yrotation
  JOINT pelvis_right_femur
  {
    OFFSET -10.78128 -3.44521 -0.5502486
    CHANNELS 3 Zrotation Xrotation Yrotation
    JOINT right_femur_tibia
    {
      OFFSET -0.8047443 -44.0398 -0.1307829
      CHANNELS 3 Zrotation Xrotation Yrotation
      JOINT right_tibia_foot
      {
        OFFSET 3.006224 -47.83518 -5
        CHANNELS 3 Zrotation Xrotation Yrotation
        End Site
        {
          OFFSET 0 -5 15
        }
      }
    }
  }
  JOINT pelvis_left_femur
  {
    OFFSET 10.78128 -3.44521 -0.5502486
    CHANNELS 3 Zrotation Xrotation Yrotation
    JOINT left_femur_tibia
    {
      OFFSET 0.8047443 -44.0398 -0.1307829
      CHANNELS 3 Zrotation Xrotation Yrotation
      JOINT left_tibia_foot
      {
        OFFSET -4.370144 -48.10324 -4.275266
        CHANNELS 3 Zrotation Xrotation Yrotation
        End Site
        {
          OFFSET 0 -5 15
        }
      }
    }
  }
  JOINT pelvis_spine1
  {
    OFFSET 0 6.468898 -3.129235
    CHANNELS 3 Zrotation Xrotation Yrotation
    JOINT spine1
    {
      OFFSET 0 23.15396 4.99043
      CHANNELS 3 Zrotation Xrotation Yrotation
      JOINT spine2
      {
        OFFSET 0 20.79997 -5.064912
        CHANNELS 3 Zrotation Xrotation Yrotation
        JOINT neck
        {
          OFFSET 0 14.38658 9.616178
          CHANNELS 3 Zrotation Xrotation Yrotation
          End Site
          {
            OFFSET 0 20 0
          }
        }
      }
      JOINT right_manubrium
      {
        OFFSET -5.722621 16.35077 3.967754
        CHANNELS 3 Zrotation Xrotation Yrotation
        JOINT right_clavicle
        {
          OFFSET -13.16364 1.694482 -4.693211
          CHANNELS 3 Zrotation Xrotation Yrotation
          JOINT right_humerus
          {
            OFFSET -28.5034 -0.3100689 -2.792744
            CHANNELS 3 Zrotation Xrotation Yrotation
            JOINT right_radius
            {
              OFFSET -25.15693 0.02248979 -1.271978
              CHANNELS 3 Zrotation Xrotation Yrotation
              End Site
              {
                OFFSET -15 0 0
              }
            }
          }
        }
      }
      JOINT left_manubrium
      {
        OFFSET 5.722621 16.35077 3.967754
        CHANNELS 3 Zrotation Xrotation Yrotation
        JOINT left_clavicle
        {
          OFFSET 13.16364 1.694482 -4.693211
          CHANNELS 3 Zrotation Xrotation Yrotation
          JOINT left_humerus
          {
            OFFSET 29.39168 -1.063119 -2.237045
            CHANNELS 3 Zrotation Xrotation Yrotation
            JOINT left_radius
            {
              OFFSET 24.59957 -0.9528479 0.9047498
              CHANNELS 3 Zrotation Xrotation Yrotation
              End Site
              {
                OFFSET 15 -0 -0
              }
            }
          }
        }
      }
    }
  }
}
MOTION
Frames: 7
Frame Time: 0.0416666666667
-235.3519 101.4821 -266.5436 7.717473 -8.12925 48.68869 6.189377 15.53603 2.228479 -0 21.86149 -0 -10.54523 -14.92488 -4.484724 4.144422 -16.46853 -2.987212 -0 18.67304 -0 4.994926 0.8867313 15.67462 1.408565 -4.677493 7.868481 0.01359878 17.44958 -6.013093 1.228614 19.04505 1.712443 0.3112197 -16.82573 4.039465 -1.723087 -31.48017 12.65541 89.38811 14.32742 -9.741293 -0 0 30.79589 -22.38669 19.43692 14.26943 1.306514 -23.24039 -9.282017 -96.12086 9.775186 39.17402 0 0 -5.764528 5.846239 15.42338 6.539422
-230.8268 101.4861 -263.8589 7.627007 -8.214119 48.05223 6.189377 15.53603 2.228479 -0 21.86149 -0 -10.54523 -14.92488 -4.484724 4.144422 -16.46853 -2.987212 -0 18.67304 -0 4.994926 0.8867313 15.67462 1.408565 -4.677493 7.868481 0.01359878 17.44958 -6.013093 1.228614 19.04505 1.712443 0.3112197 -16.82573 4.039465 -1.723087 -31.48017 12.65541 89.38811 14.32742 -9.741293 -0 0 30.79589 -22.38669 19.43692 14.26943 1.306514 -23.24039 -9.282017 -96.12086 9.775186 39.17402 0 0 -5.764528 5.846239 15.42338 6.539422
-226.3318 101.4902 -261.1242 7.535574 -8.297987 47.41551 6.189377 15.53603 2.228479 -0 21.86149 -0 -10.54523 -14.92488 -4.484724 4.144422 -16.46853 -2.987212 -0 18.67304 -0 4.994926 0.8867313 15.67462 1.408565 -4.677493 7.868481 0.01359878 17.44958 -6.013093 1.228614 19.04505 1.712443 0.3112197 -16.82573 4.039465 -1.723087 -31.48017 12.65541 89.38811 14.32742 -9.741293 -0 0 30.79589 -22.38669 19.43692 14.26943 1.306514 -23.24039 -9.282017 -96.12086 9.775186 39.17402 0 0 -5.764528 5.846239 15.42338 6.539422
-221.8674 101.4943 -258.3397 7.443185 -8.380844 46.77851 6.189377 15.53603 2.228479 -0 21.86149 -0 -10.54523 -14.92488 -4.484724 4.144422 -16.46853 -2.987212 -0 18.67304 -0 4.994926 0.8867313 15.67462 1.408565 -4.677493 7.868481 0.01359878 17.44958 -6.013093 1.228614 19.04505 1.712443 0.3112197 -16.82573 4.039465 -1.723087 -31.48017 12.65541 89.38811 14.32742 -9.741293 -0 0 30.79589 -22.38669 19.43692 14.26943 1.306514 -23.24039 -9.282017 -96.12086 9.775186 39.17402 0 0 -5.764528 5.846239 15.42338 6.539422
-217.4342 101.4983 -255.5059 7.349851 -8.46268 46.14125 6.189377 15.53603 2.228479 -0 21.86149 -0 -10.54523 -14.92488 -4.484724 4.144422 -16.46853 -2.987212 -0 18.67304 -0 4.994926 0.8867313 15.67462 1.408565 -4.677493 7.868481 0.01359878 17.44958 -6.013093 1.228614 19.04505 1.712443 0.3112197 -16.82573 4.039465 -1.723087 -31.48017 12.65541 89.38811 14.32742 -9.741293 -0 0 30.79589 -22.38669 19.43692 14.26943 1.306514 -23.24039 -9.282017 -96.12086 9.775186 39.17402 0 0 -5.764528 5.846239 15.42338 6.539422
-213.0327 101.5024 -252.623 7.255582 -8.543484 45.50371 6.189377 15.53603 2.228479 -0 21.86149 -0 -10.54523 -14.92488 -4.484724 4.144422 -16.46853 -2.987212 -0 18.67304 -0 4.994926 0.8867313 15.67462 1.408565 -4.677493 7.868481 0.01359878 17.44958 -6.013093 1.228614 19.04505 1.712443 0.3112197 -16.82573 4.039465 -1.723087 -31.48017 12.65541 89.38811 14.32742 -9.741293 -0 0 30.79589 -22.38669 19.43692 14.26943 1.306514 -23.24039 -9.282017 -96.12086 9.775186 39.17402 0 0 -5.764528 5.846239 15.42338 6.539422
-208.6635 101.5065 -249.6916 7.16039 -8.623245 44.86591 6.189377 15.53603 2.228479 -0 21.86149 -0 -10.54523 -14.92488 -4.484724 4.144422 -16.46853 -2.987212 -0 18.67304 -0 4.994926 0.8867313 15.67462 1.408565 -4.677493 7.868481 0.01359878 17.44958 -6.013093 1.228614 19.04505 1.712443 0.3112197 -16.82573 4.039465 -1.723087 -31.48017 12.65541 89.38811 14.32742 -9.741293 -0 0 30.79589 -22.38669 19.43692 14.26943 1.306514 -23.24039 -9.282017 -96.12086 9.775186 39.17402 0 0 -5.764528 5.846239 15.42338 6.539422
